<svg xmlns="http://www.w3.org/2000/svg" width="512px" height="512px"><path style="fill:#fff" d="M 256 6 A 250 250 0 0 0 6 256 A 250 250 0 0 0 256 506 A 250 250 0 0 0 506 256 A 250 250 0 0 0 256 6 z M 255.49414 50 C 345.00714 50 385.25 109.94902 385.25 166.16602 C 385.25 255.64602 294.86523 271.18939 294.86523 328.90039 L 294.86523 337 L 220.63672 337 L 220.63672 328.90039 C 220.63672 305.97839 223.9798 276.57377 250.5918 251.00977 C 277.2048 225.44277 310.46289 204.32277 310.46289 172.38477 C 310.46289 137.07577 285.9585 118.40039 255.0625 118.40039 C 203.5795 118.40039 200.21627 171.79283 198.94727 183.54883 L 126.75 183.54883 C 128.673 127.87383 152.20614 50 255.49414 50 z M 259.46289 371.94141 C 284.33289 371.94141 304.49023 392.09994 304.49023 416.96094 C 304.49023 441.83394 284.33289 462 259.46289 462 C 234.59889 462 214.43164 441.83394 214.43164 416.96094 C 214.43164 392.10094 234.59889 371.94141 259.46289 371.94141 z"/></svg>
